<svg height="512pt" viewBox="-91 0 512 512" width="512pt" xmlns="http://www.w3.org/2000/svg"><path d="m330 512h-30c0-8.269531-6.730469-15-15-15s-15 6.730469-15 15h-30c0-8.269531-6.730469-15-15-15s-15 6.730469-15 15h-30c0-8.269531-6.730469-15-15-15s-15 6.730469-15 15h-30c0-8.269531-6.730469-15-15-15s-15 6.730469-15 15h-30c0-8.269531-6.730469-15-15-15s-15 6.730469-15 15h-30v-512h30c0 8.269531 6.730469 15 15 15s15-6.730469 15-15h30c0 8.269531 6.730469 15 15 15s15-6.730469 15-15h30c0 8.269531 6.730469 15 15 15s15-6.730469 15-15h30c0 8.269531 6.730469 15 15 15s15-6.730469 15-15h30c0 8.269531 6.730469 15 15 15s15-6.730469 15-15h30zm0 0" fill="#fceea9"/><path d="m300 0c0 8.269531-6.730469 15-15 15s-15-6.730469-15-15h-30c0 8.269531-6.730469 15-15 15s-15-6.730469-15-15h-30c0 8.269531-6.730469 15-15 15v482c8.269531 0 15 6.730469 15 15h30c0-8.269531 6.730469-15 15-15s15 6.730469 15 15h30c0-8.269531 6.730469-15 15-15s15 6.730469 15 15h30v-512zm0 0" fill="#fbde55"/><path d="m210 145v-30h-30v-30h-30v30h-30v90h60v30h-60v30h30v30h30v-30h30v-90h-60v-30zm0 0" fill="#ffaf37"/><g fill="#f90"><path d="m70 325h190v30h-190zm0 0"/><path d="m70 385h190v30h-190zm0 0"/><path d="m165 85v60h45v-30h-30v-30zm0 0"/><path d="m210 175h-45v30h15v30h-15v60h15v-30h30zm0 0"/></g><path d="m165 325h95v30h-95zm0 0" fill="#ff7703"/><path d="m165 385h95v30h-95zm0 0" fill="#ff7703"/></svg>